<?xml version="1.0" encoding="UTF-8"?>
<svg width="17px" height="18px" viewBox="0 0 17 18" version="1.1" xmlns="http://www.w3.org/2000/svg" xmlns:xlink="http://www.w3.org/1999/xlink">
    <!-- Generator: Sketch 48.1 (47250) - http://www.bohemiancoding.com/sketch -->
    <title>Calendar</title>
    <desc>Created with Sketch.</desc>
    <defs></defs>
    <g id="action/icon-calendar" stroke="none" stroke-width="1" fill="none" fill-rule="evenodd" transform="translate(-8.000000, -7.000000)">
        <path d="M9.28571429,23.7142857 L12.1785714,23.7142857 L12.1785714,20.8214286 L9.28571429,20.8214286 L9.28571429,23.7142857 Z M12.8214286,23.7142857 L16.0357143,23.7142857 L16.0357143,20.8214286 L12.8214286,20.8214286 L12.8214286,23.7142857 Z M9.28571429,20.1785714 L12.1785714,20.1785714 L12.1785714,16.9642857 L9.28571429,16.9642857 L9.28571429,20.1785714 Z M12.8214286,20.1785714 L16.0357143,20.1785714 L16.0357143,16.9642857 L12.8214286,16.9642857 L12.8214286,20.1785714 Z M9.28571429,16.3214286 L12.1785714,16.3214286 L12.1785714,13.4285714 L9.28571429,13.4285714 L9.28571429,16.3214286 Z M16.6785714,23.7142857 L19.8928571,23.7142857 L19.8928571,20.8214286 L16.6785714,20.8214286 L16.6785714,23.7142857 Z M12.8214286,16.3214286 L16.0357143,16.3214286 L16.0357143,13.4285714 L12.8214286,13.4285714 L12.8214286,16.3214286 Z M20.5357143,23.7142857 L23.4285714,23.7142857 L23.4285714,20.8214286 L20.5357143,20.8214286 L20.5357143,23.7142857 Z M16.6785714,20.1785714 L19.8928571,20.1785714 L19.8928571,16.9642857 L16.6785714,16.9642857 L16.6785714,20.1785714 Z M13.1428571,11.5 L13.1428571,8.60714286 C13.1428571,8.43638393 12.9921875,8.28571429 12.8214286,8.28571429 L12.1785714,8.28571429 C12.0078125,8.28571429 11.8571429,8.43638393 11.8571429,8.60714286 L11.8571429,11.5 C11.8571429,11.6707589 12.0078125,11.8214286 12.1785714,11.8214286 L12.8214286,11.8214286 C12.9921875,11.8214286 13.1428571,11.6707589 13.1428571,11.5 Z M20.5357143,20.1785714 L23.4285714,20.1785714 L23.4285714,16.9642857 L20.5357143,16.9642857 L20.5357143,20.1785714 Z M16.6785714,16.3214286 L19.8928571,16.3214286 L19.8928571,13.4285714 L16.6785714,13.4285714 L16.6785714,16.3214286 Z M20.5357143,16.3214286 L23.4285714,16.3214286 L23.4285714,13.4285714 L20.5357143,13.4285714 L20.5357143,16.3214286 Z M20.8571429,11.5 L20.8571429,8.60714286 C20.8571429,8.43638393 20.7064732,8.28571429 20.5357143,8.28571429 L19.8928571,8.28571429 C19.7220982,8.28571429 19.5714286,8.43638393 19.5714286,8.60714286 L19.5714286,11.5 C19.5714286,11.6707589 19.7220982,11.8214286 19.8928571,11.8214286 L20.5357143,11.8214286 C20.7064732,11.8214286 20.8571429,11.6707589 20.8571429,11.5 Z M24.7142857,10.8571429 L24.7142857,23.7142857 C24.7142857,24.4174107 24.1316964,25 23.4285714,25 L9.28571429,25 C8.58258929,25 8,24.4174107 8,23.7142857 L8,10.8571429 C8,10.1540179 8.58258929,9.57142857 9.28571429,9.57142857 L10.5714286,9.57142857 L10.5714286,8.60714286 C10.5714286,7.72321429 11.2946429,7 12.1785714,7 L12.8214286,7 C13.7053571,7 14.4285714,7.72321429 14.4285714,8.60714286 L14.4285714,9.57142857 L18.2857143,9.57142857 L18.2857143,8.60714286 C18.2857143,7.72321429 19.0089286,7 19.8928571,7 L20.5357143,7 C21.4196429,7 22.1428571,7.72321429 22.1428571,8.60714286 L22.1428571,9.57142857 L23.4285714,9.57142857 C24.1316964,9.57142857 24.7142857,10.1540179 24.7142857,10.8571429 Z" id="Calendar" fill="#FFFFFF"></path>
    </g>
</svg>