<?xml version="1.0" encoding="UTF-8"?>
<svg width="21px" height="16px" viewBox="0 0 21 16" version="1.1" xmlns="http://www.w3.org/2000/svg" xmlns:xlink="http://www.w3.org/1999/xlink">
    <!-- Generator: Sketch 48.1 (47250) - http://www.bohemiancoding.com/sketch -->
    <title>download</title>
    <desc>Created with Sketch.</desc>
    <defs></defs>
    <g id="action/icon-download" stroke="none" stroke-width="1" fill="none" fill-rule="evenodd" transform="translate(-7.000000, -8.000000)">
        <path d="M20.6607306,16.5379566 C20.6607306,16.3458526 20.5113163,16.1964383 20.3192123,16.1964383 L17.9285845,16.1964383 L17.9285845,12.4397374 C17.9285845,12.2583059 17.7684978,12.0982192 17.5870662,12.0982192 L15.5379566,12.0982192 C15.356525,12.0982192 15.1964383,12.2583059 15.1964383,12.4397374 L15.1964383,16.1964383 L12.8058105,16.1964383 C12.6137065,16.1964383 12.4642922,16.356525 12.4642922,16.5379566 C12.4642922,16.6233362 12.4963096,16.7193882 12.5603442,16.7834229 L16.3170451,20.5401238 C16.3810798,20.6041584 16.4664594,20.6361758 16.5625114,20.6361758 C16.647891,20.6361758 16.743943,20.6041584 16.8079777,20.5401238 L20.5540061,16.7940953 C20.6180408,16.7193882 20.6607306,16.6340086 20.6607306,16.5379566 Z M27.4910959,18.9285845 C27.4910959,21.191143 25.6554352,23.0268036 23.3928767,23.0268036 L11.7812557,23.0268036 C9.1451616,23.0268036 7,20.881642 7,18.2455479 C7,16.3885424 8.07791702,14.7022959 9.75349101,13.9232074 C9.74281856,13.7631207 9.73214611,13.6137065 9.73214611,13.4642922 C9.73214611,10.4439901 12.1761362,8 15.1964383,8 C17.4163071,8 19.4120544,9.34472817 20.2551776,11.3938378 C20.7461101,10.9669399 21.3757844,10.7321461 22.0268036,10.7321461 C23.5316185,10.7321461 24.7589497,11.9594774 24.7589497,13.4642922 C24.7589497,13.9872421 24.6095355,14.4995195 24.3213795,14.9370897 C26.178385,15.37466 27.4910959,17.0288891 27.4910959,18.9285845 Z" id="download" fill="#FFFFFF"></path>
    </g>
</svg>