<?xml version="1.0" encoding="UTF-8"?>
<svg width="19px" height="18px" viewBox="0 0 19 18" version="1.1" xmlns="http://www.w3.org/2000/svg" xmlns:xlink="http://www.w3.org/1999/xlink">
    <!-- Generator: Sketch 48.1 (47250) - http://www.bohemiancoding.com/sketch -->
    <title>drop list</title>
    <desc>Created with Sketch.</desc>
    <defs></defs>
    <g id="action/icon-collapse" stroke="none" stroke-width="1" fill="none" fill-rule="evenodd" transform="translate(-7.000000, -7.000000)">
        <path d="M16.7449322,24.4326352 C16.5379845,24.434344 16.3305002,24.3562482 16.1726001,24.1983481 L12.7101658,20.7359138 C12.3977464,20.4234944 12.3977464,19.9169624 12.7101658,19.604543 L12.7405397,19.5741691 C13.0529591,19.2617496 13.5594911,19.2617496 13.8719106,19.5741691 L16.7449322,22.4471907 L19.6179539,19.5741691 C19.9303733,19.2617496 20.4369053,19.2617496 20.7493247,19.5741691 L20.7796986,19.604543 C21.0921181,19.9169624 21.0921181,20.4234944 20.7796986,20.7359138 L17.3172644,24.1983481 C17.1593642,24.3562482 16.9518799,24.434344 16.7449322,24.4326352 Z M8.62415537,10.2859104 C7.72715913,10.2859104 7,9.55033427 7,8.64295518 C7,7.73557609 7.72715913,7 8.62415537,7 C9.52115161,7 10.2483107,7.73557609 10.2483107,8.64295518 C10.2483107,9.55033427 9.52115161,10.2859104 8.62415537,10.2859104 Z M8.62415537,16.0362535 C7.72715913,16.0362535 7,15.3006774 7,14.3932983 C7,13.4859192 7.72715913,12.7503431 8.62415537,12.7503431 C9.52115161,12.7503431 10.2483107,13.4859192 10.2483107,14.3932983 C10.2483107,15.3006774 9.52115161,16.0362535 8.62415537,16.0362535 Z M12.6724661,7 L24.8777868,7 C25.3196146,7 25.6777868,7.3581722 25.6777868,7.8 L25.6777868,9.48591036 C25.6777868,9.92773816 25.3196146,10.2859104 24.8777868,10.2859104 L12.6724661,10.2859104 C12.2306383,10.2859104 11.8724661,9.92773816 11.8724661,9.48591036 L11.8724661,7.8 C11.8724661,7.3581722 12.2306383,7 12.6724661,7 Z M12.6724661,12.7503431 L24.8777868,12.7503431 C25.3196146,12.7503431 25.6777868,13.1085153 25.6777868,13.5503431 L25.6777868,15.2362535 C25.6777868,15.6780813 25.3196146,16.0362535 24.8777868,16.0362535 L12.6724661,16.0362535 C12.2306383,16.0362535 11.8724661,15.6780813 11.8724661,15.2362535 L11.8724661,13.5503431 C11.8724661,13.1085153 12.2306383,12.7503431 12.6724661,12.7503431 Z" id="drop-list" fill="#FFFFFF"></path>
    </g>
</svg>