<?xml version="1.0" encoding="utf-8"?>
<!-- Generator: Adobe Illustrator 22.0.1, SVG Export Plug-In . SVG Version: 6.00 Build 0)  -->
<svg version="1.1" id="Layer_1" xmlns="http://www.w3.org/2000/svg" xmlns:xlink="http://www.w3.org/1999/xlink" x="0px" y="0px"
	 viewBox="0 0 20.2 20.2" style="enable-background:new 0 0 20.2 20.2;" xml:space="preserve">
<style type="text/css">
	.st0{fill:#FFFFFF;}
</style>
<title>formcheck</title>
<desc>Created with Sketch.</desc>
<g id="action_x2F_icon-form" transform="translate(-7.000000, -8.000000)">
	<path id="formcheck" class="st0" d="M17,22l1.3-1.3L16.6,19l-1.3,1.3v0.6h1.1V22H17z M22,13.9c-0.1-0.1-0.3-0.1-0.4,0l-3.9,3.9
		c-0.1,0.1-0.1,0.3,0,0.4c0.1,0.1,0.3,0.1,0.4,0l3.9-3.9C22.1,14.2,22.1,14,22,13.9z M22.9,20.6v2.1c0,1.8-1.5,3.2-3.2,3.2h-9.4
		C8.5,26,7,24.5,7,22.7v-9.4c0-1.8,1.5-3.2,3.2-3.2h9.4c0.5,0,0.9,0.1,1.3,0.3c0.1,0,0.2,0.1,0.2,0.3c0,0.1,0,0.2-0.1,0.3l-0.6,0.6
		c-0.1,0.1-0.2,0.1-0.4,0.1c-0.2,0-0.3-0.1-0.5-0.1h-9.4c-1,0-1.8,0.8-1.8,1.8v9.4c0,1,0.8,1.8,1.8,1.8h9.4c1,0,1.8-0.8,1.8-1.8
		v-1.4c0-0.1,0-0.2,0.1-0.2l0.7-0.7c0.1-0.1,0.3-0.1,0.4-0.1C22.8,20.3,22.9,20.5,22.9,20.6z M21.8,12.3l3.2,3.2l-7.6,7.6h-3.2v-3.2
		L21.8,12.3z M26.8,13.8l-1,1l-3.2-3.2l1-1c0.4-0.4,1.1-0.4,1.5,0l1.7,1.7C27.2,12.7,27.2,13.4,26.8,13.8z"/>
</g>
</svg>
