<svg id="Layer_1" data-name="Layer 1" xmlns="http://www.w3.org/2000/svg" viewBox="0 0 640 640"><defs><style>.cls-1{fill:#fff;}</style></defs><title>icon-newemail</title><g id="action_icon-email" data-name="action/icon-email"><path id="New-Email" class="cls-1" d="M482.23,468.16c-8.32,13.86-19.41,22.18-36.05,22.18H69c-22.18,0-41.6-19.41-41.6-41.6V246.3c8.32,8.32,16.64,16.64,25,22.18,41.6,27.74,86,58.24,127.57,88.75,22.19,16.64,47.15,36,74.88,36h0c27.73,0,55.46-19.41,74.88-36h0C354.67,418.24,412.9,465.38,482.23,468.16ZM326.93,318.4c-2.77,0-2.77,2.78-5.54,2.78-16.64,11.09-44.38,36.05-66.56,36.05h0c-19.41,0-49.92-22.19-66.56-36.05C149.45,293.44,107.85,265.71,69,238c-16.64-11.09-41.6-38.83-41.6-63.78S41.29,127.05,69,127.05H446.18c13.87,0,27.73,8.32,36.05,19.41-86,2.78-155.3,72.11-155.3,160.85Zm38.83-5.54c0-77.65,63.78-127.57,138.66-127.57,66.56,0,108.16,38.82,108.16,97.06,0,49.92-38.83,74.88-69.33,74.88-16.64,0-30.51-8.32-36.06-19.41h0c-8.32,11.09-25,16.64-36.05,16.64-25,0-41.6-16.64-41.6-41.6,0-33.28,27.73-66.56,61-66.56,11.1,0,16.64,2.77,22.19,13.87h0l5.55-11.1H546l-13.87,61c-5.54,16.64,0,22.19,13.87,22.19,19.41,0,36.05-19.41,36.05-49.92,0-38.82-22.19-74.88-83.2-74.88-52.69,0-102.61,38.83-102.61,99.84,0,52.69,41.6,80.42,88.75,80.42,16.64,0,33.28-5.54,47.14-11.09l11.1,22.19c-19.42,8.32-38.83,13.86-61,13.86C421.22,415.47,365.76,382.19,365.76,312.86Zm97.06-2.78c0,11.1,5.55,19.42,16.64,19.42a24,24,0,0,0,19.41-11.1l8.32-36A15.24,15.24,0,0,0,493.33,274C473.91,271.26,462.82,293.44,462.82,310.08Z"/></g></svg>