<svg id="Layer_1" data-name="Layer 1" xmlns="http://www.w3.org/2000/svg" viewBox="0 0 640 640"><defs><style>.cls-1{fill:#fff;}</style></defs><title>icon-download</title><g id="action_icon-download" data-name="action/icon-download"><path id="download" class="cls-1" d="M418.07,328.49a9.68,9.68,0,0,0-9.8-9.8H339.61V210.81a10.08,10.08,0,0,0-9.8-9.81H271a10.08,10.08,0,0,0-9.8,9.81V318.69H192.51a9.87,9.87,0,0,0-9.81,9.8,10.23,10.23,0,0,0,2.76,7.05L293.34,443.42a9.71,9.71,0,0,0,7.05,2.76,10.19,10.19,0,0,0,7-2.76L415,335.85A11.32,11.32,0,0,0,418.07,328.49Zm196.15,68.65A117.72,117.72,0,0,1,496.53,514.83H163.08c-75.7,0-137.3-61.6-137.3-137.3a136.92,136.92,0,0,1,79.07-124.12c-.3-4.6-.61-8.89-.61-13.18a157,157,0,0,1,302.19-59.46,77.52,77.52,0,0,1,50.87-19,78.6,78.6,0,0,1,78.46,78.46,76.76,76.76,0,0,1-12.57,42.29A118,118,0,0,1,614.22,397.14Z"/></g></svg>