<svg id="Layer_1" data-name="Layer 1" xmlns="http://www.w3.org/2000/svg" viewBox="0 0 640 640"><defs><style>.cls-1{fill:#fff;}</style></defs><title>icon-survey</title><g id="action_icon-survey" data-name="action/icon-survey"><path id="thumbsUp" class="cls-1" d="M136.28,473.73a21.83,21.83,0,0,0-21.68-21.68,21.68,21.68,0,1,0,21.68,21.68Zm54.19-173.42V517.09a21.82,21.82,0,0,1-21.68,21.67H71.24a21.82,21.82,0,0,1-21.67-21.67V300.31a21.82,21.82,0,0,1,21.67-21.68h97.55A21.83,21.83,0,0,1,190.47,300.31Zm401,0c0-35.23-29.81-65-65-65H432.65c2.71-10.83,6.1-14.22,9.83-21.67,9.14-17.62,19-37.26,19-65,0-26.08,0-86.71-75.87-86.71a21.51,21.51,0,0,0-15.24,6.44C355.77,82.51,351.7,103.51,348,123.5c-4.06,19.64-7.79,40-21,53.18-10.5,10.5-22,25.06-34.21,40.64-14.9,19.65-47.42,60-59.95,61-11.18,1-20.66,10.5-20.66,21.68V517.09c0,11.85,10.16,21.33,21.68,21.67,11.85.34,32.18,7.45,53.51,14.91,36.59,12.53,82.31,28.45,130.75,28.45h43.69c29.81-.34,52.17-9.15,66.73-26.42,12.87-15.24,18.63-35.9,16.6-61.31,8.46-8.13,14.9-19.31,18.29-31.84a71.73,71.73,0,0,0,0-39.63A71.56,71.56,0,0,0,578,376.52c0-4.74-1.35-14.9-5.08-25.74C584.4,337.57,591.51,318.26,591.51,300.31Z"/></g></svg>