<svg id="Layer_1" data-name="Layer 1" xmlns="http://www.w3.org/2000/svg" viewBox="0 0 640 640"><defs><style>.cls-1{fill:#fff;}</style></defs><title>icon-calendar</title><g id="action_icon-calendar" data-name="action/icon-calendar"><path id="Calendar" class="cls-1" d="M115.59,542.84h83.62V459.22H115.59Zm102.2,0h92.92V459.22H217.79Zm-102.2-102.2h83.62V347.72H115.59Zm102.2,0h92.92V347.72H217.79Zm-102.2-111.5h83.62V245.51H115.59Zm213.7,213.7h92.92V459.22H329.29Zm-111.5-213.7h92.92V245.51H217.79Zm223,213.7h83.62V459.22H440.79Zm-111.5-102.2h92.92V347.72H329.29ZM227.09,189.77V106.14a9.56,9.56,0,0,0-9.3-9.29H199.21a9.55,9.55,0,0,0-9.29,9.29v83.63a9.55,9.55,0,0,0,9.29,9.29h18.58A9.56,9.56,0,0,0,227.09,189.77Zm213.7,250.87h83.62V347.72H440.79Zm-111.5-111.5h92.92V245.51H329.29Zm111.5,0h83.62V245.51H440.79Zm9.29-139.37V106.14a9.55,9.55,0,0,0-9.29-9.29H422.21a9.56,9.56,0,0,0-9.3,9.29v83.63a9.56,9.56,0,0,0,9.3,9.29h18.58A9.55,9.55,0,0,0,450.08,189.77Zm111.5-18.59V542.84A37.43,37.43,0,0,1,524.41,580H115.59a37.43,37.43,0,0,1-37.17-37.17V171.18A37.42,37.42,0,0,1,115.59,134h37.16V106.14a46.6,46.6,0,0,1,46.46-46.46h18.58a46.59,46.59,0,0,1,46.46,46.46V134h111.5V106.14a46.59,46.59,0,0,1,46.46-46.46h18.58a46.6,46.6,0,0,1,46.46,46.46V134h37.16A37.42,37.42,0,0,1,561.58,171.18Z"/></g></svg>