<svg id="Layer_1" data-name="Layer 1" xmlns="http://www.w3.org/2000/svg" viewBox="0 0 640 640"><defs><style>.cls-1{fill:#fff;}</style></defs><title>icon-newmessage</title><g id="action_icon-message" data-name="action/icon-message"><path id="newMessageIcon" class="cls-1" d="M556.61,334.57H582.9a26.3,26.3,0,0,1,0,52.59H556.61v26.29a26.29,26.29,0,1,1-52.58,0V387.16H477.74a26.3,26.3,0,0,1,0-52.59H504V308.28a26.29,26.29,0,1,1,52.58,0Zm-67.6-15H477.74a41.32,41.32,0,0,0,0,82.63H489v9.89L351,486.68H483.92a8.88,8.88,0,0,1,8.91,8.87v17.87a8.92,8.92,0,0,1-8.91,8.94H93a8.9,8.9,0,0,1-8.89-8.94V495.55A8.85,8.85,0,0,1,93,486.68h22.9L42.3,349.49a8.92,8.92,0,0,1,9.06-13.07l246,34.45a34.38,34.38,0,0,0,6.38.6A33,33,0,0,0,334,351.62l99.09-224a8.89,8.89,0,0,1,7.8-5.3c3.25-.39,6.58,1.68,8.2,4.68L524.5,267.38A41.32,41.32,0,0,0,489,308.28Zm-185.61,34a28.48,28.48,0,0,1-3.07-.29L38.49,316.57a9,9,0,0,1-7.22-11.74,35.67,35.67,0,0,1,16.78-20L393.23,98.39A35.33,35.33,0,0,1,416,94.71a8.93,8.93,0,0,1,6.67,12.42l-105,237.41A15.26,15.26,0,0,1,303.4,353.52Z"/></g></svg>