<svg id="Layer_1" data-name="Layer 1" xmlns="http://www.w3.org/2000/svg" viewBox="0 0 640 640"><defs><style>.cls-1{fill:#fff;}</style></defs><title>icon-upload</title><g id="action_icon-upload" data-name="action/icon-upload"><path id="upload" class="cls-1" d="M416.23,341.08a10.23,10.23,0,0,0-2.76-7.05l-108-108a9.71,9.71,0,0,0-7.06-2.76,10.23,10.23,0,0,0-7.05,2.76L183.73,333.72a11.28,11.28,0,0,0-3.07,7.36,9.68,9.68,0,0,0,9.81,9.82h68.71v108a10.09,10.09,0,0,0,9.82,9.82h58.89a10.09,10.09,0,0,0,9.82-9.82v-108h68.71A9.88,9.88,0,0,0,416.23,341.08Zm196.31,88.34A117.82,117.82,0,0,1,494.76,547.21H161c-75.77,0-137.42-61.65-137.42-137.42a137,137,0,0,1,79.14-124.22c-.31-4.61-.62-8.9-.62-13.19a157.09,157.09,0,0,1,302.45-59.51,77.59,77.59,0,0,1,50.91-19A78.69,78.69,0,0,1,534,272.38a76.9,76.9,0,0,1-12.58,42.33A118,118,0,0,1,612.54,429.42Z"/></g></svg>