<svg id="Layer_1" data-name="Layer 1" xmlns="http://www.w3.org/2000/svg" viewBox="0 0 640 640"><defs><style>.cls-1{fill:#fff;}</style></defs><title>icon-collapse</title><g id="action_icon-collapse" data-name="action/icon-collapse"><path id="drop-list" class="cls-1" d="M331.48,575.48a23.27,23.27,0,0,1-16.71-6.84L213.69,467.56a23.35,23.35,0,0,1,0-33l.88-.89a23.36,23.36,0,0,1,33,0l83.88,83.87,83.87-83.87a23.36,23.36,0,0,1,33,0l.88.89a23.35,23.35,0,0,1,0,33L348.18,568.64A23.27,23.27,0,0,1,331.48,575.48ZM94.4,162.5C68.22,162.5,47,141,47,114.53s21.23-48,47.41-48,47.42,21.47,47.42,48S120.59,162.5,94.4,162.5Zm0,167.87c-26.18,0-47.41-21.48-47.41-48s21.23-48,47.41-48,47.42,21.47,47.42,48S120.59,330.37,94.4,330.37ZM212.59,66.57H568.9a23.35,23.35,0,0,1,23.35,23.35v49.22A23.35,23.35,0,0,1,568.9,162.5H212.59a23.36,23.36,0,0,1-23.36-23.36V89.92A23.36,23.36,0,0,1,212.59,66.57Zm0,167.87H568.9a23.35,23.35,0,0,1,23.35,23.35V307a23.35,23.35,0,0,1-23.35,23.36H212.59A23.36,23.36,0,0,1,189.23,307V257.79A23.36,23.36,0,0,1,212.59,234.44Z"/></g></svg>