<svg id="Layer_1" data-name="Layer 1" xmlns="http://www.w3.org/2000/svg" viewBox="0 0 640 640"><defs><style>.cls-1{fill:#fff;}</style></defs><title>icon-form</title><g id="action_icon-form" data-name="action/icon-form"><path id="formcheck" class="cls-1" d="M319,440.43l39.16-39.17-51.21-51.21-39.16,39.16v18.08h33.14v33.14Zm150.62-244c-3-3-9-3-12.05,0L340.08,313.9c-3,3-3,9,0,12.05s9,3,12.05,0L469.61,208.47C472.62,205.46,472.62,199.43,469.61,196.42Zm27.11,201.83v63.26c0,54.23-45.18,96.4-96.39,96.4H117.16c-54.23,3-99.41-42.17-99.41-96.4V178.34c0-54.22,45.18-96.39,96.4-96.39H397.31c15.06,0,27.11,3,39.16,9,3,0,6,3,6,9,0,3,0,6-3,9l-18.08,18.07c-3,3-6,3-12.05,3s-9-3-15.06-3H111.13a54,54,0,0,0-54.22,54.23V464.53a54,54,0,0,0,54.22,54.22H394.3a54,54,0,0,0,54.22-54.22V422.35c0-3,0-6,3-6l21.08-21.09c3-3,9-3,12.05-3C493.71,389.21,496.72,395.24,496.72,398.25Zm-33.13-250L560,244.62,331,473.56h-96.4v-96.4Zm150.62,45.19-30.13,30.12-96.39-96.4L517.81,97C529.86,85,551,85,563,97l51.21,51.21C626.26,160.27,626.26,181.36,614.21,193.41Z"/></g></svg>