<svg id="Layer_1" data-name="Layer 1" xmlns="http://www.w3.org/2000/svg" viewBox="0 0 640 640"><defs><style>.cls-1{fill:#fff;}</style></defs><title>icon-link</title><g id="action_icon-link" data-name="action/icon-link"><path id="LINK" class="cls-1" d="M536,455.12a33.22,33.22,0,0,0-9.78-23.74l-72.63-72.64A33.91,33.91,0,0,0,429.82,349c-10.12,0-18.16,3.84-25.14,11.18,11.52,11.52,25.14,21.3,25.14,39.11a33.52,33.52,0,0,1-33.52,33.52c-17.81,0-27.59-13.62-39.11-25.14-7.34,7-11.53,15-11.53,25.49a33.91,33.91,0,0,0,9.78,23.75l71.94,72.29a33.52,33.52,0,0,0,23.74,9.42,34.77,34.77,0,0,0,23.75-9.08l51.33-51A33.05,33.05,0,0,0,536,455.12ZM290.49,208.93a33.87,33.87,0,0,0-9.78-23.75L208.77,112.9A33.82,33.82,0,0,0,185,103.12a35.1,35.1,0,0,0-23.75,9.43l-51.33,51a33.3,33.3,0,0,0,0,47.15l72.63,72.63a33.53,33.53,0,0,0,23.75,9.43,32.79,32.79,0,0,0,25.14-10.82c-11.52-11.53-25.14-21.31-25.14-39.12a33.54,33.54,0,0,1,33.52-33.52c17.81,0,27.59,13.62,39.11,25.14C286.3,227.44,290.49,219.41,290.49,208.93ZM603,455.12A99.93,99.93,0,0,1,573.35,526L522,577a100.75,100.75,0,0,1-142.12-.7L308,504a99.84,99.84,0,0,1-29-70.89,102.26,102.26,0,0,1,30.73-73L279,329.41a101.18,101.18,0,0,1-143.87,1.39L62.46,258.17A100.32,100.32,0,0,1,62.8,116l51.34-51a100.74,100.74,0,0,1,142.13.7L328.2,138a99.84,99.84,0,0,1,29,70.89,102.28,102.28,0,0,1-30.73,73l30.73,30.73a101.19,101.19,0,0,1,143.87-1.4l72.64,72.63A99.56,99.56,0,0,1,603,455.12Z"/></g></svg>