<svg id="Layer_1" data-name="Layer 1" xmlns="http://www.w3.org/2000/svg" viewBox="0 0 640 640"><defs><style>.cls-1{fill:#fff;}</style></defs><title>icon-phone</title><g id="action_icon-call" data-name="action/icon-call"><path id="Phone" class="cls-1" d="M594.48,480.41c0-2.77,0-5.53-1.17-8.3-2.74-8.29-21.87-17-29.68-20.93-22.25-12.64-44.89-24.88-66.76-37.91-10.15-6.32-22.64-18.17-34.74-18.17-23.82,0-58.57,71.48-79.65,71.48-10.54,0-24.21-9.87-33.58-15.4-71-39.89-120.25-89.65-159.68-161.53-5.46-9.48-15.23-23.3-15.23-34,0-21.33,70.67-56.48,70.67-80.57,0-12.25-11.71-24.88-18-35.15-12.88-22.12-25-45-37.48-67.54-3.9-7.9-12.49-27.25-20.69-30-2.73-1.19-5.47-1.19-8.2-1.19-14.05,0-41.38,6.32-54.27,12.25-19.13,8.29-31.62,30.41-41.38,48.18-12.5,23.3-19.91,47-19.91,73.46,0,36.73,14.83,69.9,26.93,103.47,8.59,24.09,19.14,47.39,32.41,69.12,41,67.14,121,148.1,187.4,189.57C313,550.71,336,561.37,359.84,570.06c33.18,12.24,66,27.25,102.29,27.25,26.15,0,49.58-7.51,72.61-20.14,17.57-9.88,39.44-22.52,47.63-41.87C588.23,522.27,594.48,494.62,594.48,480.41Z"/></g></svg>