<?xml version="1.0" encoding="UTF-8"?>
<svg width="18px" height="18px" viewBox="0 0 18 18" version="1.1" xmlns="http://www.w3.org/2000/svg" xmlns:xlink="http://www.w3.org/1999/xlink">
    <!-- Generator: Sketch 48.1 (47250) - http://www.bohemiancoding.com/sketch -->
    <title>LINK</title>
    <desc>Created with Sketch.</desc>
    <defs></defs>
    <g id="action/icon-link" stroke="none" stroke-width="1" fill="none" fill-rule="evenodd" transform="translate(-8.000000, -7.000000)">
        <path d="M23.5294118,19.9411765 C23.5294118,19.6607843 23.4215686,19.4019608 23.227451,19.2078431 L20.9843137,16.9647059 C20.7901961,16.7705882 20.5205882,16.6627451 20.2509804,16.6627451 C19.9382353,16.6627451 19.6901961,16.7813725 19.4745098,17.0078431 C19.8303922,17.3637255 20.2509804,17.6656863 20.2509804,18.2156863 C20.2509804,18.7872549 19.7872549,19.2509804 19.2156863,19.2509804 C18.6656863,19.2509804 18.3637255,18.8303922 18.0078431,18.4745098 C17.7813725,18.6901961 17.6519608,18.9382353 17.6519608,19.2617647 C17.6519608,19.5313725 17.7598039,19.8009804 17.9539216,19.995098 L20.1754902,22.227451 C20.3696078,22.4215686 20.6392157,22.5186275 20.9088235,22.5186275 C21.1784314,22.5186275 21.4480392,22.4215686 21.6421569,22.2382353 L23.227451,20.6637255 C23.4215686,20.4696078 23.5294118,20.2107843 23.5294118,19.9411765 Z M15.9480392,12.3382353 C15.9480392,12.0686275 15.8401961,11.7990196 15.6460784,11.604902 L13.4245098,9.37254902 C13.2303922,9.17843137 12.9607843,9.07058824 12.6911765,9.07058824 C12.4215686,9.07058824 12.1519608,9.17843137 11.9578431,9.36176471 L10.372549,10.9362745 C10.1784314,11.1303922 10.0705882,11.3892157 10.0705882,11.6588235 C10.0705882,11.9392157 10.1784314,12.1980392 10.372549,12.3921569 L12.6156863,14.6352941 C12.8098039,14.8294118 13.0794118,14.9264706 13.3490196,14.9264706 C13.6617647,14.9264706 13.9098039,14.8186275 14.1254902,14.5921569 C13.7696078,14.2362745 13.3490196,13.9343137 13.3490196,13.3843137 C13.3490196,12.8127451 13.8127451,12.3490196 14.3843137,12.3490196 C14.9343137,12.3490196 15.2362745,12.7696078 15.5921569,13.1254902 C15.8186275,12.9098039 15.9480392,12.6617647 15.9480392,12.3382353 Z M25.6,19.9411765 C25.6,20.7607843 25.2656863,21.5588235 24.6833333,22.1303922 L23.0980392,23.704902 C22.5156863,24.2872549 21.7284314,24.6 20.9088235,24.6 C20.0784314,24.6 19.2911765,24.2764706 18.7088235,23.6833333 L16.4872549,21.4509804 C15.904902,20.8686275 15.5921569,20.0813725 15.5921569,19.2617647 C15.5921569,18.4098039 15.9372549,17.6009804 16.5411765,17.0078431 L15.5921569,16.0588235 C14.9990196,16.6627451 14.2009804,17.0078431 13.3490196,17.0078431 C12.5294118,17.0078431 11.7313725,16.6843137 11.1490196,16.1019608 L8.90588235,13.8588235 C8.3127451,13.2656863 8,12.4892157 8,11.6588235 C8,10.8392157 8.33431373,10.0411765 8.91666667,9.46960784 L10.5019608,7.89509804 C11.0843137,7.3127451 11.8715686,7 12.6911765,7 C13.5215686,7 14.3088235,7.32352941 14.8911765,7.91666667 L17.1127451,10.1490196 C17.695098,10.7313725 18.0078431,11.5186275 18.0078431,12.3382353 C18.0078431,13.1901961 17.6627451,13.9990196 17.0588235,14.5921569 L18.0078431,15.5411765 C18.6009804,14.9372549 19.3990196,14.5921569 20.2509804,14.5921569 C21.0705882,14.5921569 21.8686275,14.9156863 22.4509804,15.4980392 L24.6941176,17.7411765 C25.2872549,18.3343137 25.6,19.1107843 25.6,19.9411765 Z" id="LINK" fill="#FFFFFF"></path>
    </g>
</svg>