<?xml version="1.0" encoding="utf-8"?>
<!-- Generator: Adobe Illustrator 22.0.1, SVG Export Plug-In . SVG Version: 6.00 Build 0)  -->
<svg version="1.1" id="Layer_1" xmlns="http://www.w3.org/2000/svg" xmlns:xlink="http://www.w3.org/1999/xlink" x="0px" y="0px"
	 viewBox="0 0 21.1 20.1" style="enable-background:new 0 0 21.1 20.1;" xml:space="preserve">
<style type="text/css">
	.st0{fill:#FFFFFF;}
</style>
<title>New Email</title>
<desc>Created with Sketch.</desc>
<g id="action_x2F_icon-email" transform="translate(-7.000000, -10.000000)">
	<path id="New-Email" class="st0" d="M23.4,25.8c-0.3,0.5-0.7,0.8-1.3,0.8H8.5c-0.8,0-1.5-0.7-1.5-1.5v-7.3c0.3,0.3,0.6,0.6,0.9,0.8
		c1.5,1,3.1,2.1,4.6,3.2c0.8,0.6,1.7,1.3,2.7,1.3h0c1,0,2-0.7,2.7-1.3c0,0,0,0,0,0C18.8,24,20.9,25.7,23.4,25.8z M17.8,20.4
		c-0.1,0-0.1,0.1-0.2,0.1c-0.6,0.4-1.6,1.3-2.4,1.3h0c-0.7,0-1.8-0.8-2.4-1.3c-1.4-1-2.9-2-4.3-3C7.9,17.1,7,16.1,7,15.2
		c0-0.9,0.5-1.7,1.5-1.7h13.6c0.5,0,1,0.3,1.3,0.7c-3.1,0.1-5.6,2.6-5.6,5.8C17.8,20.2,17.8,20.3,17.8,20.4z M19.2,20.2
		c0-2.8,2.3-4.6,5-4.6c2.4,0,3.9,1.4,3.9,3.5c0,1.8-1.4,2.7-2.5,2.7c-0.6,0-1.1-0.3-1.3-0.7h0c-0.3,0.4-0.9,0.6-1.3,0.6
		c-0.9,0-1.5-0.6-1.5-1.5c0-1.2,1-2.4,2.2-2.4c0.4,0,0.6,0.1,0.8,0.5h0l0.2-0.4h1l-0.5,2.2c-0.2,0.6,0,0.8,0.5,0.8
		c0.7,0,1.3-0.7,1.3-1.8c0-1.4-0.8-2.7-3-2.7c-1.9,0-3.7,1.4-3.7,3.6c0,1.9,1.5,2.9,3.2,2.9c0.6,0,1.2-0.2,1.7-0.4l0.4,0.8
		c-0.7,0.3-1.4,0.5-2.2,0.5C21.2,23.9,19.2,22.7,19.2,20.2z M22.7,20.1c0,0.4,0.2,0.7,0.6,0.7c0.2,0,0.5-0.1,0.7-0.4l0.3-1.3
		c-0.1-0.2-0.3-0.3-0.5-0.3C23.1,18.7,22.7,19.5,22.7,20.1z"/>
</g>
</svg>
