<?xml version="1.0" encoding="UTF-8"?>
<svg width="21px" height="16px" viewBox="0 0 21 16" version="1.1" xmlns="http://www.w3.org/2000/svg" xmlns:xlink="http://www.w3.org/1999/xlink">
    <!-- Generator: Sketch 48.1 (47250) - http://www.bohemiancoding.com/sketch -->
    <title>newMessageIcon</title>
    <desc>Created with Sketch.</desc>
    <defs></defs>
    <g id="action/icon-message" stroke="none" stroke-width="1" fill="none" fill-rule="evenodd" transform="translate(-7.000000, -8.000000)">
        <path d="M26.0909091,16.7272727 L27.0454545,16.7272727 C27.5726354,16.7272727 28,17.1546373 28,17.6818182 C28,18.2089991 27.5726354,18.6363636 27.0454545,18.6363636 L26.0909091,18.6363636 L26.0909091,19.5909091 C26.0909091,20.11809 25.6635445,20.5454545 25.1363636,20.5454545 C24.6091827,20.5454545 24.1818182,20.11809 24.1818182,19.5909091 L24.1818182,18.6363636 L23.2272727,18.6363636 C22.7000918,18.6363636 22.2727273,18.2089991 22.2727273,17.6818182 C22.2727273,17.1546373 22.7000918,16.7272727 23.2272727,16.7272727 L24.1818182,16.7272727 L24.1818182,15.7727273 C24.1818182,15.2455464 24.6091827,14.8181818 25.1363636,14.8181818 C25.6635445,14.8181818 26.0909091,15.2455464 26.0909091,15.7727273 L26.0909091,16.7272727 Z M23.6363636,16.1818182 L23.2272727,16.1818182 C22.3988456,16.1818182 21.7272727,16.8533911 21.7272727,17.6818182 C21.7272727,18.5102453 22.3988456,19.1818182 23.2272727,19.1818182 L23.6363636,19.1818182 L23.6363636,19.5410949 L18.6248606,22.2499914 L23.451586,22.2499914 C23.6297321,22.2499914 23.7749598,22.3931401 23.7749598,22.571914 L23.7749598,23.220941 C23.7749598,23.4003627 23.6297321,23.5454545 23.451586,23.5454545 L9.25928352,23.5454545 C9.08049201,23.5454545 8.93655516,23.4003627 8.93655516,23.220941 L8.93655516,22.571914 C8.93655516,22.3931401 9.08049201,22.2499914 9.25928352,22.2499914 L10.0906318,22.2499914 L7.41715003,17.2689358 C7.35905892,17.1614124 7.3668044,17.0299229 7.43651373,16.9301722 C7.5055776,16.8297738 7.62563255,16.7773076 7.74633296,16.7941486 L16.6788086,18.0449182 C16.7659452,18.0611115 16.8388819,18.0669411 16.9105276,18.0669411 C17.3868746,18.0669411 17.828367,17.7774051 18.007804,17.3460159 L21.6055798,9.21180308 C21.6552799,9.09845006 21.765653,9.02396093 21.8889353,9.01942681 C22.0070539,9.00517672 22.1277543,9.08031358 22.1864908,9.18913248 L24.9249365,14.2875117 C24.1966232,14.3902573 23.6363636,15.0160645 23.6363636,15.7727273 L23.6363636,16.1818182 Z M16.8974248,17.4150641 C16.8780611,17.4150641 16.804479,17.4085868 16.7857608,17.4047004 L7.27882865,16.073612 C7.18330106,16.0600097 7.09874623,16.0043048 7.0484006,15.9220428 C6.99740952,15.8397809 6.98643676,15.7393825 7.01677322,15.6474047 C7.12327358,15.3345503 7.33950158,15.0767532 7.62608437,14.9219453 L20.1589176,8.15185518 C20.4087094,8.01647928 20.6991649,7.97049034 20.9838113,8.01842248 C21.0819207,8.03461577 21.167121,8.09615026 21.2148848,8.18424175 C21.2626486,8.27233324 21.2665214,8.37791349 21.2258576,8.46924364 L17.4144356,17.0892551 C17.3331081,17.2842223 17.1284983,17.4150641 16.8974248,17.4150641 Z" id="newMessageIcon" fill="#FFFFFF"></path>
    </g>
</svg>