<?xml version="1.0" encoding="UTF-8"?>
<svg width="19px" height="19px" viewBox="0 0 19 19" version="1.1" xmlns="http://www.w3.org/2000/svg" xmlns:xlink="http://www.w3.org/1999/xlink">
    <!-- Generator: Sketch 48.1 (47250) - http://www.bohemiancoding.com/sketch -->
    <title>Phone</title>
    <desc>Created with Sketch.</desc>
    <defs></defs>
    <g id="action/icon-call" stroke="none" stroke-width="1" fill="none" fill-rule="evenodd" transform="translate(-7.000000, -6.000000)">
        <path d="M25.6752646,20.9199387 C25.6752646,20.8260182 25.6752646,20.7320978 25.6354735,20.6381773 C25.5426277,20.3564158 24.8927073,20.0612372 24.6274337,19.9270651 C23.8714038,19.4977143 23.1021102,19.0817808 22.359344,18.6390128 C22.0144883,18.4243375 21.5900504,18.0218211 21.1788763,18.0218211 C20.3697917,18.0218211 19.189324,20.4503363 18.4730851,20.4503363 C18.1149657,20.4503363 17.6507368,20.114906 17.3324084,19.9270651 C14.9184183,18.5719268 13.2471943,16.8813582 11.9075624,14.4394258 C11.7218709,14.1174127 11.3902788,13.6478103 11.3902788,13.2855456 C11.3902788,12.5610162 13.7910053,11.3668844 13.7910053,10.5484346 C13.7910053,10.132501 13.3930948,9.70315026 13.1808759,9.35430277 C12.7431744,8.60293895 12.3320002,7.82474071 11.9075624,7.05995967 C11.7749256,6.79161545 11.4831246,6.13417211 11.2045873,6.04025163 C11.1117415,6 11.0188957,6 10.9260499,6 C10.4485574,6 9.52009962,6.21467538 9.08239811,6.41593354 C8.43247768,6.69769498 8.00803985,7.4490588 7.67644779,8.05283329 C7.25200996,8.84444875 7,9.64948141 7,10.5484346 C7,11.7962352 7.50401992,12.9232809 7.91519407,14.0637439 C8.20699508,14.8821937 8.5651145,15.6738092 9.0160797,16.4117558 C10.4087663,18.6926817 13.1278212,21.4432099 15.3826472,22.8520171 C16.1121497,23.3082023 16.8947069,23.670467 17.7037915,23.9656456 C18.8312045,24.3815792 19.9453538,24.8914332 21.1788763,24.8914332 C22.067543,24.8914332 22.8633639,24.6365062 23.6459212,24.2071554 C24.2427869,23.8717251 24.9855531,23.4423744 25.2640904,22.7849311 C25.4630456,22.3421631 25.6752646,21.4029583 25.6752646,20.9199387 Z" id="Phone" fill="#FFFFFF"></path>
    </g>
</svg>