<?xml version="1.0" encoding="UTF-8"?>
<svg width="18px" height="17px" viewBox="0 0 18 17" version="1.1" xmlns="http://www.w3.org/2000/svg" xmlns:xlink="http://www.w3.org/1999/xlink">
    <!-- Generator: Sketch 48.1 (47250) - http://www.bohemiancoding.com/sketch -->
    <title>thumbsUp</title>
    <desc>Created with Sketch.</desc>
    <defs></defs>
    <g id="action/icon-survey" stroke="none" stroke-width="1" fill="none" fill-rule="evenodd" transform="translate(-8.000000, -8.000000)">
        <path d="M10.7321461,20.977694 C10.7321461,20.6041584 10.4226452,20.2946575 10.0491096,20.2946575 C9.66490154,20.2946575 9.36607306,20.6041584 9.36607306,20.977694 C9.36607306,21.3619021 9.66490154,21.6607306 10.0491096,21.6607306 C10.4226452,21.6607306 10.7321461,21.3619021 10.7321461,20.977694 Z M12.4397374,15.5134018 L12.4397374,22.3437671 C12.4397374,22.7173027 12.1302365,23.0268036 11.7567009,23.0268036 L8.68303653,23.0268036 C8.30950093,23.0268036 8,22.7173027 8,22.3437671 L8,15.5134018 C8,15.1398662 8.30950093,14.8303653 8.68303653,14.8303653 L11.7567009,14.8303653 C12.1302365,14.8303653 12.4397374,15.1398662 12.4397374,15.5134018 Z M25.0759132,15.5134018 C25.0759132,14.4034675 24.136738,13.4642922 23.0268036,13.4642922 L20.0705362,13.4642922 C20.1559157,13.122774 20.2626402,13.0160495 20.3800371,12.7812557 C20.6681931,12.2262885 20.977694,11.6072867 20.977694,10.7321461 C20.977694,9.91036779 20.977694,8 18.5870662,8 C18.4056346,8 18.2348755,8.07470712 18.1068061,8.20277647 C17.647891,8.65101919 17.5198216,9.31271083 17.4024247,9.94238513 C17.2743554,10.561387 17.1569585,11.2017337 16.7407331,11.6179591 C16.4098873,11.9488049 16.0470241,12.4077201 15.6628161,12.8986526 C15.1932284,13.5176545 14.1686736,14.7876755 13.7737932,14.8196928 C13.4216024,14.8517102 13.122774,15.1505387 13.122774,15.5027294 L13.122774,22.3437671 C13.122774,22.7173027 13.4429473,23.0161312 13.8058105,23.0268036 C14.1793461,23.0374761 14.8196928,23.2615974 15.4920569,23.4963912 C16.6446811,23.8912717 18.0854612,24.3928767 19.611621,24.3928767 L20.9883665,24.3928767 C21.9275417,24.3822042 22.6319231,24.1047206 23.0908383,23.5604259 C23.4963912,23.0801659 23.6778228,22.4291467 23.6137881,21.6287132 C23.8805993,21.3725745 24.0833758,21.0203838 24.1901002,20.6255033 C24.3074971,20.1986055 24.3074971,19.7717077 24.1901002,19.3768272 C24.5102736,18.9499293 24.6703603,18.4483244 24.6490154,17.9147021 C24.6490154,17.7652879 24.6063256,17.4451145 24.4889287,17.1035962 C24.8517919,16.6873708 25.0759132,16.0790414 25.0759132,15.5134018 Z" id="thumbsUp" fill="#FFFFFF"></path>
    </g>
</svg>