<?xml version="1.0" encoding="UTF-8"?>
<svg width="21px" height="16px" viewBox="0 0 21 16" version="1.1" xmlns="http://www.w3.org/2000/svg" xmlns:xlink="http://www.w3.org/1999/xlink">
    <!-- Generator: Sketch 48.1 (47250) - http://www.bohemiancoding.com/sketch -->
    <title>upload</title>
    <desc>Created with Sketch.</desc>
    <defs></defs>
    <g id="action/icon-upload" stroke="none" stroke-width="1" fill="none" fill-rule="evenodd" transform="translate(-7.000000, -8.000000)">
        <path d="M20.6607306,15.8549201 C20.6607306,15.7695405 20.6287132,15.6734885 20.5646786,15.6094538 L16.8079777,11.8527529 C16.743943,11.7887182 16.6585634,11.7567009 16.5625114,11.7567009 C16.4771318,11.7567009 16.3810798,11.7887182 16.3170451,11.8527529 L12.5710167,15.5987814 C12.506982,15.6734885 12.4642922,15.7588681 12.4642922,15.8549201 C12.4642922,16.0470241 12.6137065,16.1964383 12.8058105,16.1964383 L15.1964383,16.1964383 L15.1964383,19.9531392 C15.1964383,20.1345708 15.356525,20.2946575 15.5379566,20.2946575 L17.5870662,20.2946575 C17.7684978,20.2946575 17.9285845,20.1345708 17.9285845,19.9531392 L17.9285845,16.1964383 L20.3192123,16.1964383 C20.5113163,16.1964383 20.6607306,16.0363517 20.6607306,15.8549201 Z M27.4910959,18.9285845 C27.4910959,21.191143 25.6554352,23.0268036 23.3928767,23.0268036 L11.7812557,23.0268036 C9.1451616,23.0268036 7,20.881642 7,18.2455479 C7,16.3885424 8.07791702,14.7022959 9.75349101,13.9232074 C9.74281856,13.7631207 9.73214611,13.6137065 9.73214611,13.4642922 C9.73214611,10.4439901 12.1761362,8 15.1964383,8 C17.4163071,8 19.4120544,9.34472817 20.2551776,11.3938378 C20.7461101,10.9669399 21.3757844,10.7321461 22.0268036,10.7321461 C23.5316185,10.7321461 24.7589497,11.9594774 24.7589497,13.4642922 C24.7589497,13.9872421 24.6095355,14.4995195 24.3213795,14.9370897 C26.178385,15.37466 27.4910959,17.0288891 27.4910959,18.9285845 Z" id="upload" fill="#FFFFFF"></path>
    </g>
</svg>